<?xml version="1.0" encoding="iso-8859-1"?>
<!-- Generator: Adobe Illustrator 19.0.0, SVG Export Plug-In . SVG Version: 6.00 Build 0)  -->
<svg version="1.1" id="Capa_1" xmlns="http://www.w3.org/2000/svg" xmlns:xlink="http://www.w3.org/1999/xlink" x="0px" y="0px"
	 viewBox="0 0 410.106 410.106" style="enable-background:new 0 0 410.106 410.106;" xml:space="preserve">
<path style="fill:#FBAD4A;" d="M309.968,28.765c0,0,22.062,51.48,11.032,77.218c-5.866,13.687-10.209,70.038-44.124,113.99
	c-29.862,38.699-88.434,65.794-110.312,73.542c-46.725,16.548-69.866,11.032-99.282,18.386
	c-29.418,7.354-58.836,18.386-58.836,18.386s-6.661,12.942,7.354,22.062c46.353,30.164,173.527,79.717,283.136,0
	c161.792-117.668,91.928-220.626,73.542-250.042c-18.384-29.416-33.094-62.51-33.094-80.896S309.968,28.765,309.968,28.765z"/>
<path d="M164.949,402.086c-64.193,0-121.673-23.714-152.873-44.013c-15.174-9.876-12.979-24.537-9.701-30.909
	c0.777-1.507,2.087-2.673,3.673-3.27c1.217-0.454,30.119-11.25,59.573-18.616c11.744-2.934,22.38-3.896,33.64-4.914
	c17.314-1.563,36.937-3.337,65.021-13.283c19.977-7.074,78.174-33.676,107.187-71.277c24.354-31.56,33.004-70.313,38.17-93.467
	c1.94-8.694,3.343-14.973,5.086-19.043c8.103-18.91-5.221-58.271-11.034-71.84c-1.167-2.72-0.447-5.879,1.777-7.827
	c8.443-7.386,24.076-19.087,33.94-14.616c2.54,1.15,6.799,4.294,6.799,12.401c0,15.539,12.884,46.597,32.056,77.28l1.23,1.959
	c10.39,16.524,32.01,50.903,30.541,96.633c-1.807,56.194-37.833,110.223-107.083,160.587
	C258.157,390.45,209.903,402.086,164.949,402.086z M13.803,335.596c-0.543,2.749-0.186,7.187,5.721,11.03
	c50.326,32.749,172.636,74.926,275.396,0.203c153.194-111.413,92.846-207.377,73.016-238.913l-1.249-1.993
	c-16.36-26.18-33.836-61.863-34.126-83.956c-3.246,1.097-8.963,4.623-14.401,8.88c5.35,13.88,19.19,54.313,9.114,77.827
	c-1.244,2.9-2.664,9.267-4.306,16.637c-5.417,24.264-14.479,64.87-40.69,98.833c-29.916,38.777-87.281,66.543-113.434,75.807
	c-29.703,10.52-50.237,12.373-68.35,14.01c-10.72,0.969-20.844,1.884-31.556,4.564C45.587,324.363,21.941,332.656,13.803,335.596z"
	/>
<path d="M83.294,349.036c-9.636,0-15.804-0.37-16.811-0.433c-3.76-0.244-6.613-3.49-6.369-7.25c0.241-3.763,3.517-6.659,7.247-6.376
	c1.033,0.077,103.97,6.124,159.256-36.157c2.997-2.297,7.284-1.717,9.569,1.277c2.29,2.993,1.72,7.281-1.277,9.569
	C189.02,344.759,116.092,349.036,83.294,349.036z"/>
<path d="M251.243,294.003c-1.746,0-3.494-0.667-4.826-2c-2.666-2.666-2.666-6.987,0-9.653l17.067-17.067
	c2.666-2.666,6.987-2.666,9.653,0s2.666,6.987,0,9.653l-17.067,17.067C254.737,293.336,252.989,294.003,251.243,294.003z"/>
<g>
</g>
<g>
</g>
<g>
</g>
<g>
</g>
<g>
</g>
<g>
</g>
<g>
</g>
<g>
</g>
<g>
</g>
<g>
</g>
<g>
</g>
<g>
</g>
<g>
</g>
<g>
</g>
<g>
</g>
</svg>
